<svg id="Group_1" data-name="Group 1" xmlns="http://www.w3.org/2000/svg" width="1000.1" height="670.62" viewBox="0 0 1000.1 670.62">
  <g id="person">
    <ellipse id="Ellipse_1" data-name="Ellipse 1" cx="111.5" cy="10" rx="111.5" ry="10" transform="translate(0 650.62)" fill="#e6e6e6"/>
    <path id="Path_19" data-name="Path 19" d="M279.5,746.22l-26.9-.845L213.95,584.31,148.021,742.09l-30.108-.946c28.624-122.863,57.423-247.99,79.2-282.708l60.467,17.5Z" transform="translate(-99.95 -114.69)" fill="#2f2e41"/>
    <path id="Path_21" data-name="Path 21" d="M295.725,779.514l-1.867.149a12.1,12.1,0,0,1-5.524-.853l-36.225-4.293a12.5,12.5,0,0,1-6.831-16.392l7.84-18.815H278.5l26.218,21.263a12.1,12.1,0,0,1-8.991,18.941Z" transform="translate(-99.95 -114.69)" fill="#2f2e41"/>
    <path id="Path_22" data-name="Path 22" d="M274.841,435.568l-47.526-31.327,21.969-13.3,31.11,19.254,50.6,7.562,7.693-7.627a11.958,11.958,0,0,1,18.5,2.061h0a11.958,11.958,0,0,1-7.359,18.075l-7.592,1.775Z" transform="translate(-99.95 -114.69)" fill="#a0616a"/>
    <path id="Path_23" data-name="Path 23" d="M227.557,412.826c-5.308-10.982-14.546-19.989-27.1-27.331l24.669-24.736c11.871,6.693,22.288,17.4,31.97,30.143Z" transform="translate(-99.95 -114.69)" fill="#e6e6e6"/>
    <circle id="Ellipse_3" data-name="Ellipse 3" cx="27.482" cy="27.482" r="27.482" transform="translate(99.148 164.62)" fill="#a0616a"/>
    <path id="Path_24" data-name="Path 24" d="M240.472,362.865l-35.007-8.752c3.127-8.935,1.958-22.355,0-36.6h35.007C235.375,334.138,233.923,350.083,240.472,362.865Z" transform="translate(-99.95 -114.69)" fill="#a0616a"/>
    <path id="Path_25" data-name="Path 25" d="M259.567,482.208l-65.639-15.021c-6.94-48.37-8.417-98.855,12.332-116.257l32.621,3.978,24.589,31.538a42.7,42.7,0,0,1,4.861,7.861c5.287,11.074,4.286,24.024-1.789,34.687C257.312,445.2,254.492,462.827,259.567,482.208Z" transform="translate(-99.95 -114.69)" fill="#e6e6e6"/>
    <path id="Path_26" data-name="Path 26" d="M196.144,450.462l10.706-55.906,20.711,15.187-5.852,36.115,32.3,39.4,9.994,4.18A11.958,11.958,0,0,1,269.2,507.31h0a11.958,11.958,0,0,1-19.515.135l-4.551-6.331Z" transform="translate(-99.95 -114.69)" fill="#a0616a"/>
    <path id="Path_27" data-name="Path 27" d="M236.623,383.471c-4.5,11.338-4.883,24.235-1.8,38.445l-34.906-1.436c-3.1-13.27-2.26-28.187.575-43.936Z" transform="translate(-99.95 -114.69)" fill="#e6e6e6"/>
    <path id="Path_28" data-name="Path 28" d="M238.483,276.539s-32.621-18.3-48.533,15.117-11.139,62.854-11.139,62.854l30.234-.8,7.161-7.161,5.569,6.365.085-.137a93.839,93.839,0,0,0,13.4-43.878c.253-4.242,1.715-8.138,5.614-10.087,11.139-5.569,13.526-5.569,13.526-5.569S260.761,278.131,238.483,276.539Z" transform="translate(-99.95 -114.69)" fill="#2f2e41"/>
    <path id="Path_20" data-name="Path 20" d="M162.725,779.514l-1.867.149a12.1,12.1,0,0,1-5.524-.853l-36.225-4.293a12.5,12.5,0,0,1-6.831-16.392l7.84-18.815H145.5l26.218,21.263a12.1,12.1,0,0,1-8.991,18.941Z" transform="translate(-99.95 -114.69)" fill="#2f2e41"/>
  </g>
  <g id="web">
    <path id="Path_3" data-name="Path 3" d="M974.38,234.31H342.83a6,6,0,0,0-6,6v350a6,6,0,0,0,6,6H974.38a6,6,0,0,0,6-6v-350A6,6,0,0,0,974.38,234.31Zm4,356a4,4,0,0,1-4,4H342.83a4,4,0,0,1-4-4v-350a4,4,0,0,1,4-4H974.38a4,4,0,0,1,4,4Z" transform="translate(-99.95 -114.69)" fill="#e6e6e6"/>
    <rect id="Rectangle_1" data-name="Rectangle 1" width="2" height="362" transform="translate(298.89 119.62)" fill="#e6e6e6"/>
    <path id="Path_4" data-name="Path 4" d="M350.641,265.508A18.654,18.654,0,1,1,369.3,284.162a18.654,18.654,0,0,1-18.654-18.654Z" transform="translate(-99.95 -114.69)" fill="#6c63ff"/>
    <path id="Path_1" data-name="Path 1" d="M1010.56,482.85a455.589,455.589,0,0,1-30.18,69.41c-.66,1.22-1.33,2.44-2,3.66V309c.67-2.04,1.34-4.07,2-6.11,26.91-82.58,46.9-159.04,40.29-188.2C1022.61,122.03,1070.48,307.39,1010.56,482.85Z" transform="translate(-99.95 -114.69)" fill="#e6e6e6"/>
    <path id="Path_5" data-name="Path 5" d="M350.641,338.508A18.654,18.654,0,1,1,369.3,357.162,18.654,18.654,0,0,1,350.641,338.508Z" transform="translate(-99.95 -114.69)" fill="#6c63ff"/>
    <path id="Path_2" data-name="Path 2" d="M1100.05,366.48c-.74,4.64-23.65,140.99-119.67,221.94-.66.57-1.33,1.12-2,1.67V516.41c.66-.68,1.33-1.36,2-2.05,9.84-10.1,20.05-20.73,30.18-31.51C1053.99,436.58,1095.85,387.57,1100.05,366.48Z" transform="translate(-99.95 -114.69)" fill="#e6e6e6"/>
    <path id="Path_6" data-name="Path 6" d="M350.641,411.508A18.654,18.654,0,1,1,369.3,430.162,18.654,18.654,0,0,1,350.641,411.508Z" transform="translate(-99.95 -114.69)" fill="#6c63ff"/>
    <path id="Path_7" data-name="Path 7" d="M361.935,263.668h5.52v-5.52a1.84,1.84,0,1,1,3.68,0v5.52h5.52a1.84,1.84,0,1,1,0,3.68h-5.52v5.52a1.84,1.84,0,0,1-3.68,0v-5.52h-5.52a1.84,1.84,0,1,1,0-3.68Z" transform="translate(-99.95 -114.69)" fill="#fff"/>
    <path id="Path_8" data-name="Path 8" d="M365.806,343.706h15.617a.323.323,0,0,0,.058,0L374.1,330.907a.517.517,0,0,0-.9,0l-4.957,8.586L368,339.9Z" transform="translate(-99.95 -114.69)" fill="#fff"/>
    <rect id="Rectangle_2" data-name="Rectangle 2" width="290.485" height="1.837" transform="matrix(0.773, -0.634, 0.634, 0.773, 369.139, 351.572)" fill="#e6e6e6"/>
    <rect id="Rectangle_3" data-name="Rectangle 3" width="1.837" height="291.069" transform="matrix(0.636, -0.772, 0.772, 0.636, 369.168, 168.844)" fill="#e6e6e6"/>
    <path id="Path_11" data-name="Path 11" d="M691.032,279.588H472.415a6.437,6.437,0,0,0-6.43,6.43V463.3a6.438,6.438,0,0,0,6.43,6.43H691.032a6.437,6.437,0,0,0,6.43-6.43V286.018a6.437,6.437,0,0,0-6.43-6.43Zm-218.616,188.3a4.6,4.6,0,0,1-4.593-4.593V286.018a4.6,4.6,0,0,1,4.593-4.593H691.032a4.6,4.6,0,0,1,4.593,4.593V463.3a4.6,4.6,0,0,1-4.593,4.593Z" transform="translate(-99.95 -114.69)" fill="#e6e6e6"/>
    <g id="Path_40" data-name="Path 40">
      <path id="Path_12" data-name="Path 12" d="M733.164,379.455c-1.88.041-3.38,2.078-3.349,4.551.03,2.416,1.512,4.365,3.349,4.4H910.11c1.88.041,3.43-1.931,3.461-4.4s-1.469-4.511-3.349-4.551H733.164Z" transform="translate(-99.95 -114.69)" fill="#e6e6e6"/>
    </g>
    <path id="Path_40-2" data-name="Path 40" d="M733.164,353.512c-1.88.041-3.38,2.078-3.349,4.551.03,2.416,1.512,4.365,3.349,4.4h95.916c1.88.041,3.43-1.931,3.461-4.4s-1.469-4.511-3.349-4.551H733.164Z" transform="translate(-99.95 -114.69)" fill="#6c63ff"/>
    <g id="Path_40-3" data-name="Path 40">
      <path id="Path_13" data-name="Path 13" d="M733.164,406.634c-1.88.041-3.38,2.078-3.349,4.551.03,2.416,1.512,4.365,3.349,4.4H910.11c1.88.041,3.43-1.931,3.461-4.4s-1.469-4.511-3.349-4.551H733.164Z" transform="translate(-99.95 -114.69)" fill="#e6e6e6"/>
    </g>
    <g id="Path_40-4" data-name="Path 40">
      <path id="Path_14" data-name="Path 14" d="M733.164,433.375c-1.88.041-3.38,2.078-3.349,4.551.03,2.416,1.512,4.365,3.349,4.4H910.11c1.88.041,3.43-1.931,3.461-4.4s-1.469-4.511-3.349-4.551H733.164Z" transform="translate(-99.95 -114.69)" fill="#e6e6e6"/>
    </g>
    <g id="Path_40-5" data-name="Path 40">
      <path id="Path_15" data-name="Path 15" d="M733.164,460.554c-1.88.041-3.38,2.078-3.349,4.551.03,2.416,1.512,4.365,3.349,4.4H910.11c1.88.041,3.43-1.931,3.461-4.4s-1.469-4.511-3.349-4.551H733.164Z" transform="translate(-99.95 -114.69)" fill="#e6e6e6"/>
    </g>
    <g id="Path_40-6" data-name="Path 40">
      <path id="Path_16" data-name="Path 16" d="M466.421,488.156c-1.88.041-3.38,2.078-3.349,4.551.03,2.416,1.512,4.365,3.349,4.4H911.367c1.88.041,3.43-1.931,3.461-4.4s-1.469-4.511-3.349-4.551H466.421Z" transform="translate(-99.95 -114.69)" fill="#e6e6e6"/>
    </g>
    <g id="Path_40-7" data-name="Path 40">
      <path id="Path_17" data-name="Path 17" d="M466.421,515.335c-1.88.041-3.38,2.078-3.349,4.551.03,2.416,1.512,4.365,3.349,4.4H911.367c1.88.041,3.43-1.931,3.461-4.4s-1.469-4.511-3.349-4.551H466.421Z" transform="translate(-99.95 -114.69)" fill="#e6e6e6"/>
    </g>
    <g id="Path_40-8" data-name="Path 40">
      <path id="Path_18" data-name="Path 18" d="M466.421,542.076c-1.88.041-3.38,2.078-3.349,4.551.03,2.416,1.512,4.365,3.349,4.4H911.367c1.88.041,3.43-1.931,3.461-4.4s-1.469-4.511-3.349-4.551H466.421Z" transform="translate(-99.95 -114.69)" fill="#e6e6e6"/>
    </g>
    <path id="Path_29" data-name="Path 29" d="M376.8,403.508H361.9a2.074,2.074,0,0,0-2.08,1.664,2,2,0,0,0,1.973,2.336h4.431a1.069,1.069,0,0,1,1.069,1.069V417.4a2.074,2.074,0,0,0,1.664,2.08,2,2,0,0,0,2.336-1.973v-8.931a1.069,1.069,0,0,1,1.069-1.069h4.324a2.074,2.074,0,0,0,2.08-1.664,2,2,0,0,0-1.973-2.336Z" transform="translate(-99.95 -114.69)" fill="#fff"/>
    <circle id="Ellipse_4" data-name="Ellipse 4" cx="2" cy="2" r="2" transform="translate(274.846 300.818)" fill="#fff"/>
    <path id="Path_9" data-name="Path 9" d="M265.856,229.016h5.332l-2.618-3.8-.188-.274-.094-.137-.238.411Z" opacity="0.2" style="isolation: isolate"/>
    <path id="Path_10" data-name="Path 10" d="M357.11,343.706h13.508L368,339.9l-.188-.274-3.411-4.955a.69.69,0,0,0-1.024-.061.624.624,0,0,0-.049.061Z" transform="translate(-99.95 -114.69)" fill="#fff"/>
    <circle id="Ellipse_2" data-name="Ellipse 2" cx="2.314" cy="2.314" r="2.314" transform="translate(265.027 214.62)" fill="#fff"/>
  </g>
</svg>
